HIERARCHY
ROOT Hips
{
 OFFSET 0.000000 0.000000 0.000000
 CHANNELS 6 Xposition Yposition Zposition Yrotation Xrotation Zrotation
 JOINT Chest
 {
  OFFSET 0.000000 9.585900 0.002600
  CHANNELS 3 Yrotation Xrotation Zrotation
  JOINT Chest2
  {
   OFFSET 0.000000 9.601200 -0.005300
   CHANNELS 3 Yrotation Xrotation Zrotation
   JOINT Chest3
   {
    OFFSET 0.000000 9.561800 0.000000
    CHANNELS 3 Yrotation Xrotation Zrotation
    JOINT Chest4
    {
     OFFSET 0.000000 9.552100 0.000000
     CHANNELS 3 Yrotation Xrotation Zrotation
     JOINT Neck
     {
      OFFSET 0.000000 14.453000 0.000000
      CHANNELS 3 Yrotation Xrotation Zrotation
      JOINT Head
      {
       OFFSET 0.000000 8.936500 -0.011300
       CHANNELS 3 Yrotation Xrotation Zrotation
       End Site
       {
        OFFSET 0.000000 17.073600 -0.006000
       }
      }
     }
     JOINT RightCollar
     {
      OFFSET -2.921100 9.558500 0.000000
      CHANNELS 3 Yrotation Xrotation Zrotation
      JOINT RightShoulder
      {
       OFFSET -13.519700 0.000000 0.000000
       CHANNELS 3 Yrotation Xrotation Zrotation
       JOINT RightElbow
       {
        OFFSET 0.000000 -29.696600 0.000000
        CHANNELS 3 Yrotation Xrotation Zrotation
        JOINT RightWrist
        {
         OFFSET 0.000000 -24.004700 0.000000
         CHANNELS 3 Yrotation Xrotation Zrotation
         End Site
         {
          OFFSET 0.000000 -17.728500 0.000000
         }
        }
       }
      }
     }
     JOINT LeftCollar
     {
      OFFSET 2.921100 9.558500 0.000000
      CHANNELS 3 Yrotation Xrotation Zrotation
      JOINT LeftShoulder
      {
       OFFSET 13.519700 0.000000 0.000000
       CHANNELS 3 Yrotation Xrotation Zrotation
       JOINT LeftElbow
       {
        OFFSET 0.000000 -29.696600 0.000000
        CHANNELS 3 Yrotation Xrotation Zrotation
        JOINT LeftWrist
        {
         OFFSET 0.000000 -24.004700 0.000000
         CHANNELS 3 Yrotation Xrotation Zrotation
         End Site
         {
          OFFSET 0.000000 -17.728500 0.000000
         }
        }
       }
      }
     }
    }
   }
  }
 }
 JOINT RightHip
 {
  OFFSET -7.771700 -0.012900 -0.001300
  CHANNELS 3 Yrotation Xrotation Zrotation
  JOINT RightKnee
  {
   OFFSET 0.000000 -40.869800 0.001200
   CHANNELS 3 Yrotation Xrotation Zrotation
   JOINT RightAnkle
   {
    OFFSET 0.000000 -39.717900 0.002100
    CHANNELS 3 Yrotation Xrotation Zrotation
    JOINT RightToe
    {
     OFFSET 0.000000 -4.965400 11.033500
     CHANNELS 3 Yrotation Xrotation Zrotation
     End Site
     {
      OFFSET 0.000000 -1.423100 5.872300
     }
    }
   }
  }
 }
 JOINT LeftHip
 {
  OFFSET 7.771700 -0.012900 -0.001300
  CHANNELS 3 Yrotation Xrotation Zrotation
  JOINT LeftKnee
  {
   OFFSET 0.000000 -40.869800 0.001200
   CHANNELS 3 Yrotation Xrotation Zrotation
   JOINT LeftAnkle
   {
    OFFSET 0.000000 -39.717900 0.002100
    CHANNELS 3 Yrotation Xrotation Zrotation
    JOINT LeftToe
    {
     OFFSET 0.000000 -4.965400 11.033500
     CHANNELS 3 Yrotation Xrotation Zrotation
     End Site
     {
      OFFSET 0.000000 -1.423100 5.872300
     }
    }
   }
  }
 }
}
MOTION
Frames: 8
Frame Time: 0.008333
-253.620716 60.419683 -80.181917 157.440312 -18.889485 2.330690 4.194047 14.528721 1.878837 0.367344 1.361202 0.139558 0.620122 2.289637 0.239947 3.725755 13.029661 1.730540 1.919415 19.057373 -1.041700 2.273161 -5.575762 -1.542244 9.654313 0.293184 -7.839448 11.238785 -32.686139 -31.010689 -167.545866 -76.717761 177.735651 2.201030 5.331177 -32.769523 -10.192107 -5.186083 -2.137072 10.864084 -24.275779 19.113053 162.591723 -68.223206 176.575942 -6.068684 1.383649 15.963759 -4.624842 -49.825297 5.796466 -20.359010 71.131465 -15.005855 1.853290 -5.491744 -5.417835 -0.221852 -0.229410 -0.063489 15.261562 -50.310937 -1.655488 28.373716 66.577755 28.852086 -14.817309 -16.020497 1.857672 0.441135 0.100472 0.143701
-253.625234 60.423644 -80.192919 157.495745 -18.870859 2.331274 4.260944 14.533331 1.882992 0.372366 1.364979 0.140215 0.564757 2.279659 0.245479 3.829963 13.055828 1.732238 1.859602 18.987135 -1.002882 2.190645 -5.604599 -1.497831 9.576484 0.071822 -7.887305 10.496122 -32.866806 -31.095935 -169.812533 -75.658341 179.903841 2.295435 5.323583 -32.905674 -10.158871 -5.337046 -2.056942 11.444388 -24.582815 19.405751 162.552066 -67.138656 176.590137 -6.034067 1.289105 16.163069 -4.587987 -49.844092 5.734071 -20.417675 71.140216 -15.054487 1.835575 -5.515297 -5.411780 -0.215678 -0.223766 -0.045719 15.232758 -50.324051 -1.693707 28.382097 66.563995 28.865267 -14.844023 -15.987501 1.848661 0.404777 0.080574 0.146194
-253.631585 60.427797 -80.206958 157.586932 -18.860018 2.320313 4.230369 14.530601 1.874018 0.430263 1.377273 0.135271 0.604774 2.292411 0.244518 3.831520 13.050170 1.739551 1.770519 18.935483 -0.959967 2.171602 -5.727185 -1.453798 9.499930 -0.128220 -7.926931 9.732998 -33.043673 -31.167975 -171.239035 -74.660368 -178.680055 2.353561 5.348306 -32.989026 -10.115940 -5.462889 -1.981490 12.026314 -24.870389 19.644192 162.390142 -66.126597 176.710143 -5.996058 1.204930 16.356214 -4.567050 -49.855272 5.661039 -20.491311 71.151646 -15.111949 1.817709 -5.542762 -5.441944 -0.211161 -0.217252 0.003125 15.173231 -50.332376 -1.729418 28.385683 66.556841 28.871734 -14.875542 -15.961499 1.839860 0.384064 0.078651 0.158412
-253.642832 60.432743 -80.227373 157.747270 -18.871691 2.311014 4.204364 14.558313 1.850307 0.405558 1.372936 0.137906 0.640169 2.300784 0.241820 3.829054 13.042987 1.746428 1.752794 18.858229 -0.920568 2.104940 -5.826411 -1.387493 9.428021 -0.311048 -7.964390 8.945692 -33.215252 -31.215432 -171.902468 -73.731709 -177.920348 2.378890 5.395007 -33.035501 -10.064814 -5.568513 -1.912410 12.616024 -25.139044 19.824430 162.128602 -65.187604 176.897632 -5.953968 1.136298 16.543989 -4.633770 -49.851278 5.585922 -20.499519 71.197087 -15.170151 1.808504 -5.589416 -5.384639 -0.228282 -0.209823 -0.033522 15.072031 -50.315181 -1.797262 28.400847 66.546798 28.887123 -14.901341 -15.939557 1.830305 0.361272 0.068608 0.167758
-253.651204 60.435881 -80.244892 157.825978 -18.864477 2.288254 4.257746 14.563476 1.861133 0.333441 1.361939 0.148983 0.691895 2.307265 0.232673 3.850517 13.039468 1.748957 1.741675 18.780207 -0.882003 2.044594 -5.893449 -1.330210 9.356698 -0.470168 -8.003826 8.129157 -33.396104 -31.222748 -171.871786 -72.874844 -177.724583 2.372399 5.458642 -33.054420 -10.008196 -5.657812 -1.852702 13.212960 -25.384833 19.948396 161.798308 -64.320400 177.122014 -5.900226 1.083598 16.714953 -4.670338 -49.859179 5.567791 -20.534514 71.218036 -15.229505 1.802511 -5.611475 -5.356042 -0.236027 -0.211023 -0.044265 15.014108 -50.319238 -1.823231 28.472783 66.528796 28.957282 -14.863278 -15.943808 1.821344 0.387863 0.094364 0.174945
-253.658823 60.438270 -80.263582 157.890332 -18.860577 2.252526 4.249998 14.560882 1.880053 0.402748 1.370560 0.136572 0.670509 2.302848 0.237288 3.866427 13.034103 1.751046 1.718409 18.715235 -0.843704 2.010524 -5.967090 -1.283985 9.279129 -0.591392 -8.051248 7.292257 -33.604715 -31.181570 -171.225732 -72.091801 -178.008403 2.341901 5.526563 -33.041465 -9.948226 -5.731627 -1.804067 13.815708 -25.614773 20.018757 161.415721 -63.528775 177.368914 -5.832496 1.038034 16.863504 -4.675914 -49.863930 5.556068 -20.631688 71.234462 -15.332319 1.808516 -5.630923 -5.375360 -0.253361 -0.213656 -0.004886 14.953653 -50.328599 -1.824384 28.540786 66.519314 29.024881 -14.797068 -15.948107 1.809832 0.435036 0.102913 0.190298
-253.670496 60.439462 -80.283495 157.963062 -18.850639 2.225425 4.291595 14.559548 1.888886 0.404001 1.369542 0.136427 0.648157 2.298285 0.241815 3.875111 13.028950 1.750338 1.702169 18.653647 -0.807183 1.984369 -6.036651 -1.241273 9.193301 -0.666222 -8.108843 6.460273 -33.839087 -31.095766 -170.105466 -71.379465 -178.653505 2.294900 5.576523 -32.987601 -9.884076 -5.789197 -1.766213 14.424224 -25.837567 20.039528 160.979899 -62.807820 177.631856 -5.754791 0.993677 16.998290 -4.622392 -49.881996 5.488708 -20.765877 71.256146 -15.445544 1.799774 -5.659046 -5.353663 -0.259900 -0.212687 0.007930 14.906623 -50.347011 -1.845857 28.592202 66.520719 29.079970 -14.781995 -15.943960 1.802613 0.451856 0.101534 0.204300
-253.686032 60.439708 -80.305205 158.055786 -18.839564 2.206361 4.296976 14.557842 1.879451 0.384311 1.365842 0.139975 0.648373 2.296796 0.240766 3.877114 13.025143 1.744679 1.674023 18.617446 -0.765650 1.982424 -6.123869 -1.213608 9.104360 -0.702174 -8.170024 5.665358 -34.072092 -30.982847 -168.697046 -70.729371 -179.514010 2.233633 5.590777 -32.896726 -9.815208 -5.828145 -1.736691 15.031431 -26.058062 20.018627 160.490943 -62.145180 177.908092 -5.673962 0.951941 17.127943 -4.616577 -49.903279 5.427936 -20.836605 71.288797 -15.528027 1.790550 -5.687759 -5.327061 -0.275386 -0.216800 0.032161 14.839354 -50.360751 -1.871367 28.607605 66.528939 29.085751 -14.794380 -15.949681 1.800624 0.458391 0.110197 0.218415
